<?xml version="1.0" encoding="utf-8"?>
<!-- Generator: Adobe Illustrator 27.5.0, SVG Export Plug-In . SVG Version: 6.00 Build 0)  -->
<svg version="1.1" id="layer1" xmlns="http://www.w3.org/2000/svg" xmlns:xlink="http://www.w3.org/1999/xlink" x="0px" y="0px"
	 viewBox="0 0 400 400" style="enable-background:new 0 0 400 400;" xml:space="preserve">
<rect style="fill:#FFFFFF;" width="400" height="400"/>
<g>
	<path style="fill:#E2B28F;" d="M199.295,111.613c-2.494-2.653-6.313-4.932-10.075-4.086c-0.512,0.115-0.983,0.286-1.418,0.497
		c-3.153,1.144-5.122,4.826-5.006,8.145c0.071,2.04,0.708,4.354,2.128,5.884c1.343,1.446,3.271,1.438,4.984,1.999
		c-0.408,2.418-0.42,4.902-0.579,7.346c-0.099,1.521-0.051,2.85,1.21,3.893c2.234,1.849,7.008,2.74,8.894-0.01
		c1.04-1.518,0.719-2.59,0.822-5.014c0.074-1.742-0.887-4.827,2.269-7.223c0.771-0.586,1.285-1.61,1.16-2.46
		C203.087,116.544,201.872,114.354,199.295,111.613z"/>
	<path style="fill:#F43B5B;" d="M202.977,113.114c-0.073-0.424-0.48-0.582-0.817-0.768c-1.31-0.723-2.706-1.641-4.143-2.086
		c-0.244-0.15-0.615,0.102-0.425,0.39c0.828,1.255,1.541,2.494,2.671,3.862c0.486,0.589,1.137,1.26,1.774,0.522
		C202.29,114.74,203.054,113.564,202.977,113.114z"/>
	<path style="fill:#052F33;" d="M190.658,108.388c1.378-0.77,0.366-2.577-1-2.372c-4.557,0.687-9.632,2.784-10.547,7.548
		c-0.05,0.259-0.308,0.406-0.564,0.346c-1.03-0.241-2.549,0.359-3.089,1.055c-0.892,1.151-1.021,3.268-0.054,4.517
		c0.934,1.207,2.698,1.203,3.811,0.259c0.091-0.077,0.18-0.166,0.266-0.264c0.185-0.211,0.517-0.187,0.656,0.057
		c0.483,0.85,1.104,1.624,1.844,2.282c0.838,0.745,1.786,1.335,2.816,1.774c1.039,0.443,3.046,0.432,3.764,1.279
		c0.112,0.132,0.243,0.219,0.382,0.276c0.035,0.046,0.068,0.093,0.103,0.139c0.57,0.755,1.975,0.591,1.911-0.518
		c-0.174-3.022-3.565-4.765-3.799-6.173c-0.27-1.621,1.501-2.026,2.164-3.238C190.551,113.112,188.031,109.856,190.658,108.388z"/>
	<path style="fill:#F43B5B;" d="M190.706,119.671c-0.581-0.669-1.197-1.362-1.892-1.93c-0.512-0.682-1.159-1.369-1.931-1.132
		c-0.808,0.248-1.473,1.098-1.393,1.946c0.221,2.341,3.619,2.586,5.16,1.555C190.806,120.004,190.829,119.812,190.706,119.671z"/>
	<path style="fill:#78ECFF;" d="M224.985,112.868c-0.081-0.08-0.191,0.005-0.176,0.102c0.097,0.651,0.259,1.274,0.422,1.895
		c-0.039,0.017-0.074,0.049-0.08,0.098c-0.031,0.261-0.056,0.521-0.082,0.782c-0.047-0.088-0.091-0.177-0.142-0.265
		c-0.029-0.05-0.067-0.076-0.108-0.086c-0.027-0.066-0.082-0.12-0.175-0.144c-1.609-0.401-3.741-0.5-5.279,0.324
		c-0.062-0.087-0.214-0.116-0.268,0.002c-0.033,0.072-0.068,0.142-0.101,0.214c-0.02,0.014-0.044,0.023-0.064,0.037
		c-0.046,0.033-0.052,0.104-0.023,0.146c-0.055,0.118-0.113,0.233-0.168,0.351c-0.115-0.185-0.215-0.389-0.301-0.631
		c-0.015-0.044-0.046-0.07-0.079-0.088c-0.052-0.326-0.11-0.641-0.277-0.927c-0.031-0.096-0.06-0.194-0.098-0.285
		c-0.044-0.109-0.207-0.146-0.27-0.044c-0.017-0.05-0.029-0.103-0.048-0.151c-0.039-0.104-0.196-0.121-0.229,0
		c-0.377,1.394-0.248,2.9-0.534,4.326c-0.192,0.957-0.498,1.859-0.834,2.757c-0.005,0.013-0.011,0.025-0.018,0.036
		c-2.476,4.063-5.498,7.719-9.268,10.797c-0.597,0.488-0.985,1.127-1.77,1.226c-0.502,0.064-2.771-0.19-2.824-0.195
		c-0.95-0.086-1.055-1.207-1.107-2.11c-0.036-0.617-0.923-0.682-0.904-0.056c0.04,1.332-1.229,1.908-1.726,2.926
		c-0.07,0.142-0.14,0.332-0.204,0.548c-0.148,0.498-0.858,0.536-1.033,0.046c-0.002-0.005-0.004-0.011-0.006-0.016
		c-0.071-0.201-0.242-0.353-0.464-0.353c-2.909,0.005-5.512-1.242-7.359-3.488c-0.272-0.331-0.771,0.03-0.681,0.397
		c0.293,1.186-0.878,2-1.949,2.177c-0.001,0-0.002,0.002-0.003,0.003c-1.626,0.316-3.651,0.894-6.339,1.902
		c-0.086,0.032-0.159,0.08-0.227,0.133c-4.676,1.329-5.926,7.802-6.638,11.955c-0.522,3.049-0.123,5.739,0.602,8.71
		c0.604,2.477,0.709,4.84,0.547,7.251c-0.001,0.017-0.004,0.034-0.01,0.05c-0.345,1.079-0.74,2.164-1.546,2.976
		c-1.067,1.075-2.283,1.129-3.317,0.564c-0.061-0.074-0.135-0.111-0.212-0.123c-0.495-0.319-0.94-0.782-1.297-1.342
		c-0.248-0.389-0.95-0.147-0.78,0.329c0.605,1.694,1.399,3.058,3.701,3.69c0.46,0.126,2.617,0.404,4.638-2.135
		c1.521-1.912,2.462-4.219,3.614-6.373c0.904-1.691,1.789-3.452,2.548-5.242c0.229-0.541,1.024-0.437,1.109,0.145
		c0.753,5.126,1.358,9.323,1.807,10.712c0.01,0.031,0.01,0.06,0.003,0.092c-0.381,1.622,1.239,4.634,2.47,3.124
		c1.079-1.324,4.742-0.421,6.268-0.264c2.277,0.235,4.555,0.611,6.792,1.099c4.342,0.946,7.345,2.002,11.327,3.983
		c1.006,0.5,1.669-0.307,2.388-1.37c1.488-2.201-0.036-10.007-1.36-19.98c-0.272-2.049-0.079-4.157,0.473-6.134
		c1.641-5.874,6.392-10.215,9.086-15.492c0.529-1.037,2.529-4.292,3.379-7.514c0.35-1.327,0.7-2.885,0.715-4.39
		c0-0.007,0.001-0.014,0.002-0.021C226.887,117.118,226.545,114.414,224.985,112.868z"/>
	<path style="fill:#F43B5B;" d="M289.417,280.012c0.224-2.743-0.292-5.204-0.872-7.86c-0.516-2.359-0.927-4.142-2.214-6.023
		c-2.622-3.833-7.551-5.965-11.768-7.157c-1.76-0.497-3.622-0.939-5.2-1.92c-1.855-1.154-3.209-2.918-4.235-4.849
		c-1.145-2.154-1.989-4.437-3.309-6.499c-1.105-1.727-2.693-3.211-4.519-4.437c-0.665-0.447-1.137-0.981-1.443-1.554
		c-3.141-1.141-6.3-2.233-9.488-3.242c-6.788-2.148-47.833-6.877-49.914-6.806c-9.54,0.327-18.995,2.019-28.037,5.149
		c-8.636,2.989-17.03,6.718-25.063,11.147c-4.554,2.511-8.99,5.252-13.285,8.209c-0.178,0.337-0.413,0.64-0.717,0.883
		c-6.439,5.158-10.923,12.074-13.271,19.818c-2.105,6.944-2.578,14.335-1.043,21.114c1.627,7.187,5.46,13.977,10.654,19.418
		c18.742,19.636,48.402,25.171,87.72,25.441c22.536,0.154,41.636-9.276,49.846-12.716
		C282.641,320.009,288.914,286.193,289.417,280.012z"/>
	<path style="fill:#0485A8;" d="M254.315,165.345c-3.593,0.355-8.291,1.416-8.143,1.401c-7.226,16.874-14.228,33.845-21.077,50.876
		c-6.916,17.198-13.662,34.463-20.241,51.793c-3.7,9.748-32.609,88.017-36.216,97.8c-0.072,0.195,0.11,0.353,0.282,0.371
		c3.858,0.397,7.883,0.64,11.669-0.386c3.783-1.025,12.712-20.268,14.256-23.855c2.046-4.755,20.477-61.126,22.249-65.989
		c1.839-5.046,3.659-10.099,5.463-15.157c7.269-20.39,14.263-40.879,20.976-61.458c3.792-11.625,7.495-23.28,11.11-34.962
		C254.705,165.581,254.535,165.324,254.315,165.345z"/>
	<path style="fill:#003E4F;" d="M184.158,341.288c-1.556,0.153-3.113,0.306-4.669,0.458c-0.202,0.02-0.406,0.164-0.393,0.393
		c0.023,0.399,0.049,0.626,0.106,1.021c0.009,0.062,0.034,0.108,0.064,0.146c-0.227,3.015,0.076,6.152,0.144,9.158
		c0.008,0.341,0.535,0.544,0.695,0.188c1.603-3.572,3.074-7.197,4.431-10.869C184.618,341.56,184.399,341.265,184.158,341.288z"/>
	<path style="fill:#003E4F;" d="M194.352,313.463c-1.556,0.153-3.113,0.306-4.669,0.458c-0.202,0.02-0.406,0.164-0.393,0.393
		c0.023,0.399,0.049,0.626,0.106,1.021c0.009,0.062,0.034,0.108,0.064,0.146c-0.227,3.015,0.076,6.152,0.144,9.158
		c0.008,0.341,0.535,0.544,0.695,0.188c1.603-3.572,3.074-7.197,4.431-10.869C194.812,313.734,194.593,313.439,194.352,313.463z"/>
	<path style="fill:#003E4F;" d="M204.935,284.912c-1.556,0.153-3.112,0.306-4.669,0.458c-0.202,0.02-0.406,0.164-0.393,0.393
		c0.023,0.399,0.049,0.626,0.105,1.021c0.009,0.062,0.034,0.108,0.065,0.146c-0.227,3.015,0.076,6.152,0.144,9.158
		c0.008,0.341,0.535,0.544,0.695,0.188c1.603-3.572,3.074-7.197,4.431-10.869C205.396,285.184,205.177,284.889,204.935,284.912z"/>
	<path style="fill:#003E4F;" d="M215.465,258.654c-0.574-0.687-1.529-2.136-2.574-2.044c-1.061,0.093-1.4,1.337-2.012,2.028
		c-0.094-0.136-0.351-0.122-0.335,0.083c0.187,2.425,1,4.866,1.624,7.207c0.077,0.289,0.504,0.356,0.65,0.085
		c0.856-1.583,1.724-3.16,2.561-4.753C215.892,260.286,216.231,259.572,215.465,258.654z"/>
	<path style="fill:#D10B35;" d="M205.421,279.506c-2.927-0.055-5.867-0.277-8.784-0.524c-0.027-0.002-0.051,0.002-0.077,0.002
		c-0.053-0.244-0.115-0.486-0.193-0.724c-0.2-0.611-1.096-0.65-1.28,0c-0.657,2.327-0.052,4.949-0.192,7.342
		c-0.033,0.563,0.479,0.939,0.983,0.983c1.52,0.133,3.041,0.032,4.564,0.044c0.977,0.008,1.985,0.042,2.897-0.371
		c2.082-0.944,1.752-3.017,2.981-4.581C206.977,280.839,206.608,279.528,205.421,279.506z"/>
	<path style="fill:#E2B28F;" d="M208.309,277.368c-1.201-0.463-2.405-0.9-3.445-1.67c-1.79-1.326-2.019-3.073-1.873-5.171
		c0.199-2.866,0.72-5.791,0.534-8.664c-0.045-0.692-1.071-0.903-1.257-0.17c-0.086,0.338-0.158,0.68-0.225,1.023
		c-2.31-0.624-5.023-0.984-7.387-0.87c-0.26-0.525-1.168-0.37-1.156,0.28c0.102,5.491,1.286,11.087,2.002,16.531
		c0.05,0.379,0.22,0.65,0.592,0.777c3.566,1.217,7.62,1.086,11.309,0.62c0.378-0.048,0.64-0.265,0.79-0.538
		C209.157,279.43,209.426,277.798,208.309,277.368z"/>
	<path style="fill:#D10B35;" d="M216.678,252.026c-2.916,0.073-5.334-0.518-7.909-1.818c0.238-0.343-0.109-0.894-0.581-0.793
		c-2.812,0.602-3.037,5.999-3.33,8.238c-0.033,0.25,0.169,0.57,0.389,0.678c2.349,1.151,5.708,1.944,8.312,1.253
		c2.787-0.74,2.859-3.882,4.022-5.985C217.954,252.923,217.49,252.005,216.678,252.026z"/>
	<path style="fill:#E2B28F;" d="M220.786,236.835c0.306-0.891-0.631-1.656-1.457-1.457c-2.388,0.576-4.496,0.51-6.877-0.053
		c-0.568-0.135-1.016,0.099-1.281,0.467c-0.261-0.01-0.533,0.122-0.655,0.438c-1.479,3.833-0.246,10.213-3.37,13.193
		c-0.407,0.388-0.352,1.206,0.189,1.464c2.877,1.372,6.021,2.122,9.144,2.687c0.525,0.095,1.086-0.137,1.23-0.699
		c0.603-2.342,2.556-4.107,1.892-6.684c-0.496-1.927-1.286-2.684-0.659-4.787C219.406,239.847,220.256,238.378,220.786,236.835z"/>
	<path style="fill:#003E4F;" d="M231.252,199.737c-2.686-4.602-7.951-7.073-12.542-9.745c-1.415-0.673-2.84-1.324-4.277-1.949
		c-2.203-0.958-5.17-1.862-6.683-3.854c-0.102-0.134,0.113-0.281,0.225-0.173c1.489,1.438,3.705,2.105,5.796,2.777
		c0.091-3.808,0.431-13.553,0.436-13.709c0.025-0.693-5.74-4.524-14.251-5.978c-4.721-0.806-10.239-1.429-14.983-0.64
		c-0.566,0.094-5.468,13.15-5.259,18.746c0.206,5.505,2.616,10.72,6.606,14.514c1.928,1.833,4.113,3.296,6.443,4.496
		c-0.95,20.337-2.051,57.312-2.051,57.312s2.95,1.18,6.869,1.517c3.483,0.3,7.543,0.59,7.543,0.59s0.363-4.518,0.927-7.501
		c1.264-6.683,2.154-13.305,3.022-19.989c-0.725-1.555,0.342-5.907,0.495-6.579c0.7-3.084,1.182-6.234,1.812-9.336
		c0.748-3.682,0.788-7.37,1.333-11.066c0.055-0.372,0.647-0.27,0.642,0.087c-0.086,6.116-1.512,11.906-2.559,17.892
		c-0.257,1.469-2.303,7.923-0.762,8.992c2.546,0.154,11.563,0.152,13.775-0.293c0.188-0.038,1.527-0.411,1.732-1.044
		c2.342-7.217,4.437-14.51,6.248-21.878C232.803,208.805,234.251,203.18,231.252,199.737z"/>
	<path style="fill:#E5BA9C;" d="M174.627,157.931c-1.158-5.2-3.163-10.486-1.861-15.83c0.03-0.124,0.372-0.743,0.834-1.638
		c0.234-2.493,0.21-4.87,0.083-7.405c-0.029-0.046-0.061-0.091-0.099-0.134c-0.466-0.527-1.384-0.599-2.04-0.633
		c-1.041-0.054-2.381,0.102-3.402,0.629c-0.036-0.209-0.082-0.419-0.128-0.622c-0.059-0.452-0.113-0.904-0.142-1.362
		c-0.03-0.481-0.043-0.964-0.047-1.447c0.031-0.555,0.091-1.108,0.19-1.653c0.084-0.464,0.371-1.216-0.112-1.576
		c-0.292-0.217-0.583-0.1-0.765,0.145c-0.171,0.229-0.266,0.488-0.311,0.802c-0.073,0.521-0.835,4.665-0.221,8.538
		c0.071,0.451,0.276,3.9,0.523,5.086c0.019,0.093,0.027,0.188,0.022,0.283c-0.244,4.349-0.954,8.628-1.316,12.965
		c-0.313,3.75-0.428,8.245,1.516,11.625c1.271,2.211,4.262,3.847,6.622,2.156c1.204-0.863,1.483-2.382,1.483-3.775
		C175.458,162.02,175.075,159.94,174.627,157.931z"/>
	<path style="fill:#78ECFF;" d="M176.319,128.491c-1.597-1.981-5.277-2.515-7.105-0.522c-0.077,0.084-0.078,0.191-0.037,0.277
		c-0.57,0.52-1.026,1.163-1.288,1.876c-0.789,2.145,0.224,4.735,2.172,5.885c2.023,1.194,4.795,0.61,6.291-1.16
		C177.859,133.063,177.763,130.283,176.319,128.491z"/>
	<path style="fill:#E5BA9C;" d="M170.765,126.265c-0.519-0.318-1.051-0.091-1.465,0.313c-0.108,0.105-0.204,0.285-0.034,0.391
		c0.628,0.394,1.083,0.978,1.25,1.709c0.081,0.354-0.053,0.925,0.226,1.219c0.653,0.689,0.962-0.614,0.977-1.014
		C171.75,127.997,171.598,126.774,170.765,126.265z"/>
	<path style="fill:#CE9C7A;" d="M170.761,129.942c0.132-1.265-0.211-2.746-1.032-3.102c-1.124-0.487-1.936,1.07-1.995,2.025
		c-0.029,0.309-0.115,1.114,0.068,1.46c0.049,0.091,0.137-0.54,0.905-1.352c0.16-0.169,0.314-0.268,0.412-0.238
		c0.158,0.049,0.183,0.272,0.199,0.451c0.014,0.166,0.017,0.331,0.039,0.496c0.043,0.325,0.099,0.696,0.309,0.962
		c0.193,0.244,0.563,0.357,0.813,0.221C170.768,130.71,170.745,130.098,170.761,129.942z"/>
	<path style="fill:#CE9C7A;" d="M173.863,126.263c-0.596-1.258-1.906-0.853-2.345,0.201c-0.02,0.048-0.071,0.258-0.079,0.283
		c-0.038,0.127,0.745-0.112,0.924-0.002c0.722,0.443,0.313,1.461,0.372,2.292c0.027,0.38,0.136,0.974,0.702,0.973
		c0.487-0.001,0.602-1.015,0.68-1.429C174.261,127.814,174.2,126.976,173.863,126.263z"/>
	<path style="fill:#CE9C7A;" d="M176.023,130.043c-0.041-0.043-0.581-0.45-0.884-0.047c-0.349,0.465,0.065,1.472,0.066,1.97
		c0.001,0.751-0.174,1.404-0.442,2.043c-0.113,0.269-0.299,0.502-0.537,0.67c-0.229,0.162-0.468,0.317-0.712,0.482
		c-0.981,0.666-1.658,1.585-1.765,2.797c-0.084,0.951,0.237,2.269,1.336,2.479c0.653,0.125,1.057-0.253,1.39-0.713
		c0.999-1.376,1.748-3.13,2.228-4.695C177.211,133.373,177.297,131.38,176.023,130.043z"/>
	<path style="fill:#FFFFFF;" d="M202.24,150.769c-0.868-4.413-1.997-8.983-3.802-13.114c-0.068-0.156-0.316-0.044-0.271,0.114
		c1.209,4.289,2.533,8.471,3.33,12.869c0.419,2.311,0.771,4.63,1.021,6.966c0.242,2.257,0.238,4.552,0.539,6.798
		c0.046,0.345,0.523,0.363,0.551,0C203.949,159.96,203.097,155.123,202.24,150.769z"/>
	<path style="fill:#E2B28F;" d="M293.743,355.743c0.083-0.51,0.35-1.278,0.222-1.811c-0.312-1.298-1.938-1.029-2.968-1.046
		c-1.15-0.02-4.073-0.469-4.995,0.458c-0.497,0.5,0.295,2.98,0.036,6.22c-0.086,1.072-0.128,1.561,0.791,2.093
		c0.752,0.435,1.912,0.883,3.09,1.073c0.107,0.062,0.241,0.085,0.395,0.055c1.483,0.161,2.927-0.138,3.554-1.445
		c0.12-0.25,0.063-0.58-0.108-0.793C293.73,359.794,293.608,356.57,293.743,355.743z"/>
	<path style="fill:#F43B5B;" d="M294.104,359.017c-1.414-0.589-0.76,2.063-4.947,1.878c-0.996-0.044-2.439-2.418-3.488-2.867
		c-0.13-0.056-0.273,0.019-0.332,0.148c-1.355,2.951-9.426,4.262-11.425,5.316c-2.025,1.067-3.625,2.886-3.241,4.776
		c0.06,0.292,7.483,1.649,13.243,1.54c7.36-0.139,11.222-1.326,11.263-1.511c0.405-1.812,0.133-4.34-0.141-6.197
		C294.876,361.026,294.364,359.125,294.104,359.017z"/>
	<path style="fill:#770730;" d="M294.769,368.147c-1.908,0.966-4.105,0.965-6.196,1.109c-2.035,0.14-4.074,0.249-6.114,0.272
		c-0.974,0.011-1.949,0.001-2.922-0.033c-0.323-1.074-1.164-3.197-1.789-4.186c-0.421-0.667-1.761-2.039-2.562-2.144
		c-0.452-0.059-0.995,0.152-1.489,0.415c-1.332,0.611-2.421,1.789-2.964,3.128c-0.198,0.488-0.567,1.433-0.36,2.063
		c-0.055,0.156-0.019,0.342,0.154,0.434c1.732,0.924,3.916,1.072,5.847,1.28c2.233,0.24,4.484,0.288,6.728,0.247
		c2.254-0.041,4.505-0.179,6.753-0.344c1.93-0.142,3.781-0.296,5.532-1.182C296.092,368.849,295.472,367.791,294.769,368.147z"/>
	<path style="fill:#770730;" d="M295.36,360.969c-0.159-0.663-0.547-2.674-1.607-2.394c-0.415,0.11-0.603,0.607-0.824,0.917
		c-0.035,0.049-0.073,0.091-0.109,0.137c-0.642,0.559-1.369,0.97-2.203,1.236c-0.242,0.077-0.277,0.467,0,0.526
		c1.524,0.326,3.043,0.301,4.553-0.088C295.315,361.265,295.393,361.11,295.36,360.969z"/>
	<path style="fill:#E2B28F;" d="M281.001,360.114c0.083-0.509,0.35-1.278,0.222-1.811c-0.312-1.298-1.938-1.029-2.968-1.046
		c-1.15-0.02-4.073-0.469-4.995,0.458c-0.497,0.5,0.295,2.98,0.036,6.22c-0.086,1.072-0.128,1.561,0.791,2.093
		c0.752,0.435,1.912,0.883,3.09,1.073c0.107,0.062,0.241,0.085,0.395,0.054c1.483,0.161,2.927-0.138,3.554-1.445
		c0.12-0.25,0.063-0.58-0.108-0.793C280.988,364.165,280.866,360.941,281.001,360.114z"/>
	<path style="fill:#78ECFF;" d="M295.927,231.402c-0.307-4.456-4.092-9.656-9.483-10.365c-0.066-0.009-0.128-0.01-0.192-0.015
		c-0.307-0.195-0.646-0.366-1.02-0.503c-2.315-0.847-3.879-1.496-6.319-2.106c-2.622-0.655-6.508-1.035-9.203-1.306
		c-5.382-0.541-9.326-4.906-9.964-5.589c-0.624-0.668-2.084-3.012-5.539-1.226c-3.055,1.579-1.983,4.797-1.337,6.13
		c1.115,2.301,2.858,4.645,5.4,6.938c1.669,1.505,5.731,3.892,7.339,5.539c2.076,2.126,3.271,3.652,2.892,6.791
		c-0.224,1.093-1.319,3.856-2.058,6.137c-0.448-0.187-1.004-0.293-1.738-0.473c-4.278-1.046-6.608,5.264-4.12,8.183
		c0.663,0.778,2.399,1.745,3.23,2.098c0.26,0.111,3.287,0.63,4.136,0.552c6.823-0.628,13.81-5.023,16.343-7.387
		c0.533-0.498,1.042-1.02,1.543-1.549h0c0-0.001,0.001-0.001,0.001-0.001c0.851-0.9,1.676-1.826,2.539-2.714
		c0.006-0.006,0.012-0.011,0.017-0.017c0.238-0.244,0.48-0.484,0.724-0.72c0.072-0.07,0.146-0.139,0.219-0.208
		c0.197-0.186,0.398-0.368,0.601-0.547c0.077-0.068,0.153-0.136,0.232-0.203c0.274-0.234,0.553-0.462,0.842-0.68
		c0.021-0.016,0.043-0.025,0.064-0.031c0.007-0.001,0.013,0,0.02-0.001c0.011-0.001,0.023-0.001,0.033,0
		c0.033,0.115,0.065,0.231,0.091,0.35c-2.156,2.256-4.123,4.712-6.382,6.867c-2.098,2.001-4.594,3.527-7.16,4.853
		c-2.566,1.326-5.323,2.477-8.207,2.844c-1.165,0.148-2.234,0.034-3.391-0.092c-0.597-0.065-1.114-0.076-1.558,0.017
		c-0.341,0.071-0.597,0.359-0.652,0.703c-0.581,3.64-0.98,7.316-1.176,11.029c-0.142,2.7,2.016,4.858,4.528,5.373
		c7.123,1.461,11.488,1.624,17.168-1.37c5.504-2.902,6.268-12.967,7.356-18.047C293.107,244.3,296.374,237.894,295.927,231.402z"/>
	<path style="fill:#FFFFFF;" d="M278.687,222.47c-0.05-1.054-0.118-2.107-0.182-3.161c-0.003-0.046-0.016-0.088-0.034-0.129
		c0.008-0.007,0.013-0.015,0.021-0.023c0.159-0.156-0.023-0.664-0.217-0.538c-0.049,0.032-0.327,0.354-0.397,0.43
		c-1.481,1.606-1.456,3.686-1.302,5.745c0.03,0.403,0.491,0.502,0.723,0.196c0.499-0.66,1.001-1.318,1.503-1.976
		C278.927,222.85,278.843,222.586,278.687,222.47z"/>
	<path style="fill:#E2B28F;" d="M291.787,198.205c-7.037-0.516-12.535,5.102-16.369,9.9c-1.552,1.942-1.703,3.351-0.181,5.328
		c0.755,0.98,1.584,1.928,2.451,2.856c0.348,0.373,0.541,0.862,0.555,1.372c0.059,2.13,0.186,4.279,0.399,6.379
		c0.077,0.758,0.276,1.441,0.995,1.87c0.901,0.538,2.185,0.633,3.217,0.759c2.093,0.256,4.487,0.023,5.942-1.589
		c0.03-0.033,0.053-0.065,0.081-0.097c-0.013-0.074-0.022-0.148-0.035-0.222c0.117,0.199,0.235,0.397,0.373,0.594
		c0.59,0.845,1.899,0.111,1.456-0.77c-0.912-1.814-1.323-3.806-0.984-4.784c1.187-3.424,9.862-2.146,10.867-8.995
		C301.75,202.652,297.83,198.648,291.787,198.205z"/>
	<path style="fill:#78ECFF;" d="M269.472,253.042c-1.165,0.148-2.234,0.034-3.391-0.092c-0.203-0.022-0.396-0.038-0.581-0.046
		c0.302,0.155,0.515,0.258,0.519,0.248c0.914,0.308,1.984,0.293,2.897,0.116c0.124-0.024,0.355-0.11,0.67-0.245
		C269.547,253.029,269.51,253.037,269.472,253.042z"/>
	<path style="fill:#F96484;" d="M281.673,201.687c-0.814,0.431-1.64,0.849-2.462,1.274c-1.05,0.374-2.09,0.784-3.027,1.285
		c-1.191,0.636-0.503,1.457,0.257,2.172c1.174,1.104,1.564,0.886,2.641-0.248c1.065-1.121,2.904-2.418,3.198-4.016
		C282.344,201.8,282.006,201.51,281.673,201.687z"/>
	<path style="fill:#FFFFFF;" d="M268.243,296.175c-0.038,0-0.038,0.059,0,0.059C268.281,296.235,268.281,296.175,268.243,296.175z"
		/>
	<path style="fill:#003E4F;" d="M293.999,340.077c-1.243-8.863-3.766-17.538-4.694-26.444c-0.967-9.283-0.692-16.841,0.82-25.92
		c0.193-1.161,0.694-3.632,0.233-3.747c-0.352-0.088-0.716,2.34-0.933,3.285c-1.079,4.699-1.877,9.435-2.589,14.202
		c-0.756,5.062-1.45,10.164-1.791,15.273c-0.319,4.784-0.31,9.587-0.385,14.379c-0.003,0.21-0.156,0.318-0.317,0.331
		c-0.045,0.004-0.091,0-0.135-0.012c-0.001,0-0.001,0-0.001,0c-0.039-0.01-0.074-0.029-0.106-0.051
		c-0.006-0.004-0.012-0.006-0.017-0.01c-0.026-0.021-0.046-0.049-0.065-0.079c-0.006-0.01-0.016-0.017-0.021-0.028
		c-0.021-0.043-0.034-0.093-0.034-0.151c-0.015-0.981-0.017-1.959-0.017-2.936c0.003-0.904,0.012-1.806,0.026-2.708
		c0.122-7.673,0.731-15.257,1.846-22.906c0.699-4.79,1.407-9.597,2.548-14.304c0.535-2.207,1.102-4.406,1.548-6.633
		c0.286-1.429,0.283-2.509,0.281-3.957c-0.002-1.611-0.152-3.515-0.574-5.141c-0.218-1.535-1.29-5.094-1.745-6.53
		c-0.097-0.305-0.435-0.455-0.726-0.323c-2.096,0.957-6.614,2.501-11.132,3.236c-4.519,0.736-9.984-0.283-11.873-0.722
		c-0.383-0.089-0.75,0.186-0.782,0.578c-0.167,2.101-0.173,8.158,0.285,12.287c0.054,1.785,1.339,23.728,2.364,28.94
		c1.556,7.912,2.63,15.63,4.295,23.523c1.368,6.483,1.718,18.705,2.383,25.638c0.041,0.429,0.391,0.76,0.821,0.778
		c1.768,0.075,4.689,0.345,6.013,0.285c0.93-0.042,1.844-0.068,2.75-0.061c0.44,0.004,0.815-0.314,0.872-0.75
		c0.206-1.588,0.635-5.229,0.755-7.116c0.001-0.013,0.002-0.026,0.003-0.038c0.022-0.351,0.041-0.704,0.056-1.057
		c0.121-2.951,0.111-5.915,0.42-8.855c0.003-0.03,0.016-0.05,0.032-0.066c0.005-0.005,0.01-0.009,0.016-0.012
		c0.012-0.008,0.025-0.012,0.038-0.014c0.008-0.001,0.016-0.004,0.024-0.003c0.045,0.004,0.088,0.034,0.094,0.096
		c0.325,3.039,0.394,6.108,0.327,9.163c-0.021,0.981-0.044,1.993-0.097,3.01c-0.022,0.424,0.381,0.741,0.789,0.624
		c2.113-0.609,4.424-0.818,6.578-0.974c0.851-0.062,1.717-0.11,2.587-0.129c0.356-0.008,0.636-0.306,0.611-0.661
		C295.016,348.172,294.336,342.485,293.999,340.077z"/>
	<path style="fill:#D10B35;" d="M281.363,363.388c-1.414-0.589-0.76,2.063-4.947,1.878c-0.996-0.044-2.439-2.419-3.488-2.867
		c-0.13-0.056-0.273,0.019-0.332,0.148c-1.355,2.951-9.426,4.262-11.425,5.316c-2.025,1.067-3.625,2.886-3.241,4.776
		c0.059,0.292,7.482,1.65,13.243,1.54c7.36-0.139,11.222-1.326,11.263-1.511c0.405-1.812,0.133-4.34-0.141-6.197
		C282.135,365.397,281.622,363.496,281.363,363.388z"/>
	<path style="fill:#770730;" d="M282.061,372.351c-1.908,0.966-4.105,0.965-6.196,1.109c-2.035,0.14-4.074,0.249-6.114,0.272
		c-0.974,0.011-1.949,0.001-2.922-0.033c-0.323-1.074-1.164-3.197-1.789-4.186c-0.421-0.667-1.76-2.039-2.562-2.144
		c-0.452-0.059-0.995,0.152-1.488,0.415c-1.332,0.611-2.421,1.789-2.964,3.128c-0.198,0.488-0.567,1.433-0.36,2.063
		c-0.055,0.156-0.019,0.342,0.154,0.434c1.732,0.924,3.916,1.072,5.847,1.28c2.233,0.24,4.484,0.288,6.728,0.247
		c2.254-0.041,4.505-0.179,6.753-0.344c1.93-0.142,3.781-0.296,5.532-1.182C283.384,373.053,282.764,371.996,282.061,372.351z"/>
	<path style="fill:#770730;" d="M282.652,365.36c-0.159-0.663-0.547-2.674-1.607-2.394c-0.415,0.11-0.603,0.607-0.824,0.917
		c-0.035,0.049-0.073,0.091-0.109,0.137c-0.642,0.559-1.37,0.97-2.203,1.236c-0.242,0.077-0.277,0.467,0,0.526
		c1.524,0.326,3.043,0.301,4.553-0.088C282.608,365.657,282.686,365.501,282.652,365.36z"/>
	<path style="fill:#F43B5B;" d="M108.189,355.066c2.016,2.295,5.142,5.666,7.517,7.613c1.468,1.203,5.812,3.945,6.213,4.039
		c3.273,0.767,7.303,0.195,10.562-0.485c1.117-0.233,1.215-1.558,0.623-2.265c-0.559-2.113-2.773-2.738-5.14-2.609
		c-1.039-4.171-3.733-8.14-5.493-12.037c-0.431-0.953-1.565-1.288-2.392-0.525c-2.165,0.536-4.123-0.042-4.833-1.418
		c-1.746-3.382-2.412,1.254-3.231,1.718c-0.78,0.442-1.797,0.952-2.384,1.651C108.777,351.763,107.631,354.431,108.189,355.066z"/>
	<g>
		<path style="fill:#770730;" d="M132.52,362.12c-1.046-1.027-2.914-1.78-4.328-1.1c-1.465,0.704-2.47,3.31-2.704,4.899
			c-0.239,0.009-0.478,0.018-0.718,0.022c-2.711,0.042-4.757-0.798-6.824-2.534c-1.725-1.448-3.349-3.038-4.93-4.64
			c-1.59-1.611-3.018-3.458-4.746-4.921c-0.366-0.31-0.918,0.114-0.657,0.542c1.303,2.135,3.254,3.947,5.007,5.712
			c1.849,1.862,3.755,3.844,5.923,5.339c3.999,2.758,9.497,1.835,14.014,0.899c0.416-0.047,0.795-0.156,1.037-0.397
			C134.578,364.961,133.265,362.851,132.52,362.12z"/>
		<path style="fill:#770730;" d="M117.834,348.796c-0.42-0.082-0.826-0.17-1.198-0.315c-0.505-0.197-0.912-0.582-1.165-1.061
			c-0.187-0.354-0.39-0.693-0.616-1c-0.146-0.198-0.35-0.332-0.554-0.38c-0.021-0.019-0.046-0.036-0.078-0.045
			c-0.53-0.155-0.876,0.389-1.119,0.785c-0.223,0.365-0.389,0.773-0.675,1.096c-0.152,0.172-0.369,0.31-0.39,0.564
			c-0.048,0.6,0.947,0.843,1.352,1.004c0.732,0.291,3.127,0.996,4.6-0.126C118.173,349.179,118.071,348.842,117.834,348.796z"/>
	</g>
	<path style="fill:#052F33;" d="M108.828,192.603c-0.255-0.261-0.647,0.039-0.567,0.356c0.039,0.155,0.076,0.31,0.115,0.465
		c-0.104,0.061-0.179,0.17-0.177,0.321c0.012,0.888,0.27,1.705,0.774,2.436c0.149,0.216,0.413,0.219,0.58,0.085
		c0.054,0.061,0.112,0.118,0.175,0.17c0.263,0.216,0.566,0.086,0.668-0.155c0.024-0.016,0.044-0.038,0.051-0.071
		C110.747,194.932,109.663,193.456,108.828,192.603z"/>
	<path style="fill:#E2B28F;" d="M102.182,205.686c1.316,5.453,6.387,8.183,11.571,9.608c0.014,0.021,0.027,0.043,0.041,0.064
		c0.109,1.743-0.255,3.376-1.046,5.203c-0.385,0.887,0.86,1.574,1.382,0.719c0.148-0.242,0.27-0.486,0.395-0.73
		c0.574,0.707,1.944,0.655,2.374-0.461c0.036-0.092,0.072-0.184,0.108-0.277c0.411-0.064,0.76-0.336,0.828-0.878
		c0.005-0.033,0.012-0.062,0.017-0.095c0.4,0.041,0.818-0.094,1.163-0.501c0.152-0.099,0.276-0.239,0.359-0.419
		c2.472-2.908,5.282-5.756,7.4-8.89c1.355-2.007,1.168-3.4-0.341-5.278c-3.731-4.641-9.637-9.581-16.182-8.854
		C104.632,195.522,100.892,200.337,102.182,205.686z"/>
	<path style="fill:#052F33;" d="M116.508,212.945c-0.43-0.87-1.22-1.228-2.072-1.596c-1.194-0.516-2.247-1.086-3.155-2.053
		c-4.084-4.349-0.225-10.583-3.041-15.209c-0.328-0.913-0.879-1.762-1.647-2.518c-0.263-0.259-0.64,0.038-0.568,0.356
		c0.218,0.965,0.207,1.891-0.003,2.787c-0.217-0.788-0.671-1.502-1.369-2.088c-0.356-0.299-0.782,0.03-0.711,0.446
		c0.204,1.19,0.172,2.327-0.083,3.447c-0.01-0.045-0.02-0.089-0.031-0.134c-0.096-0.423-0.713-0.442-0.903-0.088
		c-1.061,1.983-1.867,3.993-2.17,6.016c-0.025,0.171-0.156,0.305-0.326,0.333c-0.188,0.031-0.377,0.062-0.574,0.085
		c-0.48,0.057-0.693,0.221-0.474,0.507c0.198,0.259,0.372,0.522,0.529,0.792c0.158,0.344,0.302,0.69,0.438,1.039
		c0.372,1.989,0.649,4.44,1.835,5.921c0.886,1.107,2.268,1.641,3.622,2.143c0.419,0.264,0.855,0.508,1.309,0.726
		c2.374,1.139,5.109,1.801,6.831,3.939c0.228,0.284,0.643,0.393,0.92,0.088C116.041,216.591,117.415,214.781,116.508,212.945z"/>
	<path style="fill:#CE9C7A;" d="M159.058,168.687c-0.126-0.437-0.368-1.637-1.051-1.497c-0.462,0.095-0.468,0.62-0.367,1.131
		c0.031,1.039,0.09,2.064-0.057,3.106c-0.19,1.348-0.678,2.486-1.185,3.729c-0.237,0.581-0.281,1.496,0.509,1.669
		c0.748,0.163,1.136-0.732,1.385-1.261C159.295,173.438,159.716,170.979,159.058,168.687z"/>
	<path style="fill:#CE9C7A;" d="M160.652,169.168c-0.125-0.395-0.418-1.312-1.031-0.966c-0.337,0.19-0.275,0.766-0.137,1.315
		c-0.05,1.048-0.082,2.078-0.34,3.125c-0.151,0.615-0.361,1.214-0.607,1.796c-0.214,0.506-0.562,0.987-0.723,1.509
		c-0.142,0.459-0.028,1.014,0.531,1.101c0.817,0.127,1.193-0.901,1.464-1.469C160.753,173.609,161.33,171.314,160.652,169.168z"/>
	<path style="fill:#E2B28F;" d="M161.814,171.419c-0.337-0.125-0.433,0.159-0.455,0.322c-0.21,1.563-0.845,2.972-1.492,4.385
		c-0.142,0.31-0.472,0.501-0.809,0.45c-0.015-0.002-0.03-0.005-0.045-0.007c-0.391-0.069-0.779-0.166-1.157-0.287
		c-0.071-0.023-0.141-0.046-0.21-0.071c-0.532-0.187-0.81-0.759-0.657-1.302c0.216-0.766,0.356-1.56,0.462-2.318
		c0.164-1.169,0.357-2.568,0.147-3.769c0.003-0.109-0.007-0.215-0.039-0.314c-0.108-0.333-0.446-0.586-0.788-0.411
		c-0.384,0.196-0.413,0.838-0.359,1.416c-0.096,1.044-0.135,2.085-0.383,3.124c-0.199,0.832-0.999,2.397-1.046,2.475
		c-1.507,2.464-3.103,4.846-3.23,7.734c-0.014,0.328-0.102,0.525-0.139,0.613c-0.243,0.585-0.475,1.174-0.709,1.762
		c-0.357,0.898-0.765,1.797-1.006,2.736c-0.109,0.099-0.155,0.271-0.091,0.4c-0.001,0.005-0.003,0.01-0.004,0.015
		c-0.027,0.135,0.115,0.204,0.211,0.143c0.929,0.387,1.899,0.692,2.863,0.979c0.61,0.182,1.763,1.18,1.865,0.454
		c0.23-1.641,0.334-2.352,0.432-3.096c0.085-0.647,0.212-1.314,0.469-1.914c0.324-0.756,3.543-3.735,4.5-5.965
		c0.115-0.269,0.32-0.666,0.436-1.058c0.147-0.299,0.249-0.636,0.345-0.874c0.315-0.78,0.575-1.58,0.808-2.388
		C161.933,173.963,162.911,171.827,161.814,171.419z"/>
	<path style="fill:#003E4F;" d="M121.468,336.92c3.579-10.28,8.121-20.033,10.776-30.636c0.005-0.022,0.01-0.045,0.016-0.067
		c-0.121-0.275-0.177-0.59-0.127-0.946c0.648-4.528,1.625-9.039,2.523-13.528c0.366-1.828,0.692-3.694,1.058-5.554
		c0.345-3.97,0.584-7.999,1.557-11.791c0.267-1.04,1.662-0.759,1.815,0.176c0.186,1.138,0.272,2.31,0.303,3.496
		c0.083,0.12-0.117,5.338-0.49,7.779c-0.205,1.649-0.439,3.278-0.649,4.847c-0.513,3.832-1.187,7.634-1.959,11.421
		c-0.236,1.317-0.485,2.631-0.763,3.936c-0.039,0.184-0.105,0.339-0.181,0.48c-0.033,0.148-0.063,0.296-0.097,0.444
		c-2.354,10.404-5.159,21.728-10.444,31.172C123.866,339.827,120.802,338.835,121.468,336.92z"/>
	<path style="fill:#003E4F;" d="M116.112,332.83c-0.516,3.808-0.97,7.622-1.205,11.455c1.138,0.74,3.188-0.301,2.832-2.023
		C117.085,339.087,116.35,335.972,116.112,332.83z"/>
	<path style="fill:#003E4F;" d="M117.44,323.306c1.145-3.04,2.677-6.14,2.231-9.296c-0.078-0.554-0.611-0.971-1.131-0.998
		C118.304,316.454,117.9,319.882,117.44,323.306z"/>
	<path style="fill:#003E4F;" d="M117.309,315.479c0.026-0.29-0.376-0.395-0.495-0.13c-1.736,3.861-3.329,8.419-3.938,12.358
		c-0.659,4.256-0.118,8.691,0.776,12.938c0.061,0.291,0.484,0.264,0.511-0.032C114.954,332.21,116.553,323.879,117.309,315.479z"/>
	<path style="fill:#005C7C;" d="M149.541,187.718c-1.131,2.614-6.676,15.23-10.044,19.782c-0.579,0.92-1.175,1.848-1.766,2.785
		c-0.677,1.202-1.342,2.411-1.979,3.635c-1.939,3.729-2.36,6.169-2.088,11.175c0.144,2.649,0.757,6.053,1.31,8.088
		c0.611,2.245,1.144,4.509,1.597,6.789c1.759,8.855-0.27,29.366,0.387,29.863c2.693,2.036,6.261,3.91,9.503,4.887
		c1.26,0.38,2.195-0.093,2.656-0.882c0.763-0.771,0.563-2.165,0.428-3.162c-0.216-1.585-0.577-3.136-1.059-4.655
		c-2.734-14.413-9.939-35.655-8.914-43.318c0.224-1.672,1.354-2.994,1.624-3.35c3.075-4.051,5.467-8.469,7.78-12.952
		c2.022-3.921,5.38-12.224,6.298-16.482c0.043-0.2-0.099-0.389-0.303-0.406c-1.834-0.156-3.64-0.675-4.892-1.902
		C149.913,187.449,149.634,187.503,149.541,187.718z"/>
	<path style="fill:#FFFFFF;" d="M133.609,223.83c-0.146-1.442-3.171-4.679-3.206-4.701c-0.128-0.229-13.415-2.288-13.83-2.216
		c-5.003,0.868-5.456,23.272-3.981,29.533c1.179,5.005,1.935,11.945,7.162,14.654c5.393,2.796,11.474-0.855,16.687,1.353
		c2.226,0.943,5.278-0.339,5.057-3.013C140.934,252.596,134.495,232.548,133.609,223.83z"/>
	<path style="fill:#052F33;" d="M113.359,207.811c-0.718-0.732-1.374-1.636-1.861-2.269c-2.021-2.626-1.31-5.968-2.76-8.968
		c-0.245-0.507-1.061-0.209-1.027,0.314c0.131,2.004,0.347,4.026,0.705,6.018c-0.197-0.106-0.447,0.163-0.324,0.38
		c0.18,0.318,0.375,0.628,0.583,0.931c0.052,0.243,0.111,0.485,0.168,0.727c-0.1,0.146-0.119,0.34,0.021,0.539
		c0.058,0.082,0.116,0.163,0.174,0.245c0.008,0.031,0.017,0.063,0.025,0.094c-0.398-0.113-0.773,0.298-0.56,0.734
		c0.62,1.267,4.351,4.375,4.978,1.666C113.513,208.085,113.463,207.916,113.359,207.811z"/>
	<path style="fill:#F96484;" d="M111.713,208.378c0.719-0.073,1.52,0.34,2.191,0.553c0.799,0.253,3.468,1.168,3.285,1.671
		c-0.945,2.598-4.685,2.451-6.133,0.419C110.431,210.143,110.21,208.529,111.713,208.378z"/>
	<path style="fill:#E2B28F;" d="M123.771,349.673c0.269-0.631-0.657-1.15-0.949-0.514c-0.026,0.056-0.048,0.112-0.073,0.168
		c-0.057-0.038-0.118-0.066-0.183-0.084c0.011-0.041,0.022-0.081,0.033-0.122c0.13-0.486-0.425-0.832-0.809-0.679
		c-0.174-0.349-0.675-0.547-0.972-0.24c-0.085-0.332-0.463-0.513-0.791-0.431c-0.184-0.268-0.555-0.363-0.851-0.193
		c-0.112-0.371-0.526-0.585-0.861-0.439c-0.284-0.141-0.651-0.099-0.821,0.258c-0.045,0.094-0.089,0.188-0.134,0.281
		c-0.022-0.008-0.044-0.015-0.066-0.02c-0.231-0.461-1.063-0.441-1.203,0.15c-0.055,0.23-0.109,0.461-0.164,0.691
		c-0.008-0.04-0.012-0.08-0.02-0.12c-0.059-0.298-0.583-0.214-0.533,0.09c0.411,2.509,0.244,4.943-0.502,7.376
		c-0.064,0.21,0.083,0.377,0.262,0.434c-0.121,0.308-0.007,0.709,0.421,0.863c2.157,0.779,4.35,1.346,6.614,1.71
		c0.401,0.064,0.677-0.207,0.757-0.514c0.302-0.04,0.566-0.304,0.442-0.673c-0.841-2.492-0.791-5.034,0.171-7.448
		C123.616,350.036,123.693,349.854,123.771,349.673z M118.117,356.353c0.069,0.083,0.168,0.141,0.276,0.171
		c0.001,0.061,0,0.122,0.002,0.184c-0.1-0.028-0.199-0.057-0.299-0.086C118.103,356.531,118.11,356.442,118.117,356.353z
		 M120.314,356.763c0.054,0.154,0.111,0.308,0.168,0.461c-0.073-0.016-0.146-0.032-0.218-0.048
		C120.282,357.039,120.298,356.901,120.314,356.763z M121.623,357.101c0.029-0.025,0.054-0.053,0.077-0.084
		c0.097,0.169,0.196,0.338,0.301,0.504c-0.119-0.021-0.239-0.04-0.359-0.062c0.003-0.032,0.005-0.066,0.003-0.101
		C121.64,357.272,121.63,357.187,121.623,357.101z M115.653,355.891c0.034-0.08,0.067-0.16,0.101-0.24
		c0.027,0.048,0.065,0.087,0.11,0.117c-0.002,0.079-0.005,0.126-0.009,0.125C115.782,355.883,115.716,355.885,115.653,355.891z"/>
	<path style="fill:#003E4F;" d="M138.875,261.409c-1.845-0.88-6.071-2.571-11.646-2.773c-2.37-0.086-10.358,0.079-10.936,1.928
		c-2.674,8.552-2.684,13.548-0.99,22.379c1.702,8.874,3.857,21.953,3.412,26.601c-1.241,12.968-3.766,25.796-3.969,38.847
		c0.028,0.299,0.058,0.596,0.093,0.891c0.029,0.243,0.189,0.452,0.417,0.543c1.706,0.678,8.201,2.501,10.325,2.844
		c0.359,0.058,0.698-0.177,0.769-0.533c1.406-6.998,2.866-13.922,4.95-20.788c2.353-7.754,3.104-15.368,5.358-23.154
		c2.006-6.93,3.313-41.646,3.26-45.187C139.907,262.326,139.507,261.711,138.875,261.409z"/>
	<path style="fill:#D10B35;" d="M109.526,361.591c2.016,2.295,5.142,5.666,7.517,7.613c1.468,1.203,5.812,3.945,6.213,4.039
		c3.273,0.767,7.303,0.195,10.562-0.485c1.117-0.233,1.215-1.558,0.623-2.265c-0.559-2.113-2.773-2.738-5.14-2.609
		c-1.039-4.171-3.733-8.14-5.493-12.037c-0.431-0.953-1.565-1.288-2.392-0.525c-2.165,0.536-4.123-0.042-4.833-1.418
		c-1.746-3.382-2.412,1.254-3.23,1.718c-0.78,0.442-1.797,0.952-2.384,1.651C110.114,358.289,108.969,360.956,109.526,361.591z"/>
	<path style="fill:#770730;" d="M133.851,368.762c-1.046-1.027-2.914-1.78-4.328-1.1c-1.465,0.704-2.47,3.31-2.704,4.899
		c-0.239,0.009-0.479,0.018-0.718,0.022c-2.711,0.042-4.757-0.798-6.824-2.534c-1.725-1.449-3.349-3.038-4.93-4.64
		c-1.59-1.611-3.018-3.458-4.746-4.921c-0.366-0.31-0.918,0.114-0.657,0.542c1.303,2.135,3.254,3.947,5.007,5.712
		c1.849,1.862,3.755,3.844,5.922,5.339c3.999,2.758,9.496,1.835,14.014,0.899c0.416-0.047,0.795-0.156,1.037-0.397
		C135.909,371.604,134.596,369.494,133.851,368.762z"/>
	<path style="fill:#770730;" d="M119.165,355.438c-0.42-0.082-0.826-0.17-1.199-0.315c-0.504-0.197-0.912-0.582-1.165-1.061
		c-0.187-0.353-0.39-0.693-0.616-1c-0.146-0.198-0.35-0.332-0.553-0.38c-0.021-0.019-0.046-0.036-0.078-0.045
		c-0.53-0.155-0.876,0.389-1.119,0.785c-0.223,0.365-0.389,0.773-0.675,1.096c-0.152,0.172-0.369,0.31-0.39,0.564
		c-0.048,0.6,0.947,0.843,1.351,1.004c0.733,0.291,3.127,0.996,4.6-0.126C119.504,355.822,119.402,355.484,119.165,355.438z"/>
	<path style="fill:#F96484;" d="M125.1,196.962c-2.221-0.424-7.164-0.527-7.291-0.544c-0.268-0.034-0.471,0.45-0.312,0.61
		c0.047,0.048,0.225,0.235,0.288,0.281c1.964,1.44,3.685,3.187,5.749,4.477c0.044,0.03,0.088,0.059,0.133,0.084
		c0.056,0.034,0.11,0.07,0.166,0.105c0.058,0.035,0.112,0.04,0.164,0.033c0.118,0.032,0.241,0.046,0.369,0.038
		c0.116-0.007,0.244-0.07,0.294-0.182c0.49-1.1,0.535-3.455,0.649-4.645C125.321,197.107,125.207,196.983,125.1,196.962z"/>
	<path style="fill:#E2B28F;" d="M257.487,209.804c-1.274-1.815-2.534-3.862-3.553-5.161c-0.113-0.144-0.368-0.121-0.484,0
		c-1.419,1.485-4.931,4.124-3.265,6.436c0.279,0.891,0.767,1.658,1.221,2.434c0.54,0.922,0.973,1.884,1.822,2.538
		c1.098,0.846,2.609,1.016,3.701,0.264c0.982-0.365,1.884-1.215,2.212-2.893C259.342,212.4,258.551,211.32,257.487,209.804z"/>
	<path style="fill:#005C7C;" d="M269.662,159.376c-2.635,0.106-15.413,0.098-15.586,0.507c-3.879,9.157-7.387,18.488-11.03,27.741
		c-3.662,9.301-7.346,18.594-11.027,27.888c-7.361,18.589-14.723,37.178-22.084,55.768c-3.869,9.769-34.198,90.155-37.714,99.443
		c-0.208,0.548,0.199,1.132,0.785,1.132h17.834c0.354,0,0.668-0.22,0.788-0.553c2.023-5.643,25.106-69.402,25.031-69.424
		c7.239-17.213,14.156-34.561,20.869-51.985c7.008-18.19,13.805-36.463,20.345-54.826c2.575-7.231,5.102-14.479,7.595-21.739
		c1.913-4.345,3.432-8.862,4.556-13.478C270.078,159.622,269.912,159.366,269.662,159.376z"/>
	<path style="fill:#CE9C7A;" d="M154.283,176.781c0-0.975,0.249-1.784,0.643-2.663c0.084-0.187,0.304-0.454,0.249-0.678
		c-0.278-1.116-1.275,0.223-1.814,1.105c-0.899,1.471-1.52,3.144-1.225,4.857c0.222,1.293,1.553,1.855,2.137,0.443
		C154.676,178.87,154.284,177.788,154.283,176.781z"/>
	<path style="fill:#00A6C1;" d="M196.216,136.079c-0.013-0.016-0.026-0.032-0.039-0.048c-0.141-0.174-0.425-0.197-0.616-0.117
		c-0.198,0.084-0.357,0.292-0.347,0.516c0.009,0.197,0.106,0.386,0.279,0.487c0.197,0.115,0.529,0.103,0.684-0.088l0.039-0.048
		C196.399,136.556,196.401,136.307,196.216,136.079z"/>
	<path style="fill:#00A6C1;" d="M199.827,134.977c-0.33-0.139-0.623,0.052-0.747,0.359c-0.008,0.019-0.016,0.039-0.024,0.059
		c-0.102,0.252,0.091,0.551,0.317,0.646c0.253,0.107,0.539,0.01,0.684-0.224c0.011-0.018,0.023-0.036,0.034-0.055
		C200.268,135.479,200.122,135.102,199.827,134.977z"/>
	<path style="fill:#CE9C7A;" d="M209.804,87.589c-0.529-0.244-1.196-0.208-1.727,0.034c-0.142-0.11-0.355,0.092-0.222,0.245
		c0.786,0.907,2.202,1.13,3.329,1.291c0.119,0.017,0.205-0.126,0.153-0.227C211.039,88.353,210.389,87.858,209.804,87.589z"/>
	<path style="fill:#CE9C7A;" d="M209.312,85.516c-0.542-0.22-1.323-0.215-1.76,0.228c-0.094-0.091-0.291-0.062-0.302,0.106
		c-0.036,0.574,0.054,1.103,0.269,1.636c0.046,0.115,0.195,0.121,0.281,0.055c0.778-0.605,1.428-0.163,2.051,0.37
		c0.212,0.181,0.382,0.329,0.68,0.311c0.541-0.033,0.818-0.575,0.63-1.053C210.887,86.473,209.976,85.786,209.312,85.516z"/>
	<path style="fill:#CE9C7A;" d="M210.153,83.919c-0.706-0.314-1.484-0.542-2.264-0.485c-1.122,0.082-2.296,0.925-2.138,2.127
		c-0.164-0.062-0.359,0.139-0.208,0.28c0.382,0.357,0.762,0.716,1.149,1.067c0.158,0.143,0.378,0.406,0.615,0.432
		c0.539,0.058,0.407-0.678,0.431-0.992c0.113-1.489,1.683-1.19,2.712-0.967c0.335,0.073,0.816,0.122,0.838-0.359
		C211.314,84.458,210.569,84.104,210.153,83.919z"/>
	<path style="fill:#78ECFF;" d="M213.371,79.652c-1.597-1.981-5.208-2.449-7.105-0.522c-0.345,0.35-1.063,1.44-1.325,2.153
		c-0.789,2.145,0.224,4.735,2.172,5.885c2.023,1.194,4.795,0.61,6.291-1.16C214.911,84.224,214.815,81.444,213.371,79.652z"/>
	<path style="fill:#E5BA9C;" d="M224.894,112.517c-1.434-4.107-3.734-6.684-6.201-10.226c-0.659-0.946-2.192-3.153-3.081-4.139l0,0
		c-1.869-2.272-2.183-3.505-2.1-4.257c0.094-0.853,0.182-1.706,0.267-2.56c0.059-0.594,0.156-1.29-0.208-1.814
		c-0.441-0.636-2.369-0.764-2.48-0.67c-0.583,0.046-1.392-0.346-1.92-0.575c-0.001,0-0.001-0.002-0.002-0.002
		c-0.816-0.619-1.586-1.251-2.255-2.032c-0.564-0.659-1.23-1.452-1.426-2.293c-0.205-0.879,0.002-1.657-0.022-2.544
		c-0.014-0.519-0.011-1.314-0.315-1.761c-0.304-0.448-0.901-0.002-1.109,0.385c-0.264,0.491-0.381,1.144-0.51,1.685
		c-0.132,0.558-0.232,1.126-0.239,1.701c-0.014,1.135,0.391,2.168,0.906,3.162c0.287,0.555,0.602,1.096,0.871,1.659
		c0.013,0.027,0.022,0.053,0.034,0.08c-0.569,1.452,0.367,2.706,1.042,4.003c0.86,1.652,2.477,4.399,3.337,6.051
		c0,0.001,0.004,0.001,0.005,0.002c1.953,4.341,4.156,8.578,6.258,12.846c1.374,2.789,2.931,7.449,6.612,7.812
		c1.164,0.115,2.507-0.266,3.105-1.352C226.292,116.172,225.405,113.98,224.894,112.517z"/>
	<path style="fill:#CE9C7A;" d="M215.115,83.802c-0.001-0.009-0.001-0.018-0.002-0.027c-0.002-0.018-0.011-0.031-0.023-0.039
		c-0.044-0.098-0.124-0.187-0.248-0.245c-0.51-0.24-1.168,0.201-1.496,0.559c-0.523,0.572-0.719,1.306-0.918,2.036
		c-0.247,0.904-0.667,1.577-1.191,2.339c-0.742,1.081-1.008,2.592,0.218,3.468c1.405,1.005,2.203-1.004,2.548-2.059
		c0.306-0.936,0.528-1.9,0.72-2.865c0.188-0.941,0.461-2.032,0.401-3.01C215.131,83.906,215.129,83.854,215.115,83.802z"/>
	<path style="fill:#FFFFFF;" d="M291.051,223.366c-0.095-1.166-0.335-2.599-0.846-3.638c-0.19-0.387-0.928,0.591-1.248,0.835
		c-1.3,0.991-8.695,1.374-9.369,1.469c-0.003,0-1.055,0.128-1.152-0.322c-0.059-0.272-0.4,0.212-0.389,0.497
		c0.049,1.301,0.948,2.601,1.217,3.257c0.277,0.677,0.511,1.414,0.854,2.059c0.434,0.814,0.772,1.048,1.68,1.008
		c1.565-0.068,3.22-0.505,4.747-0.84c1.131-0.248,2.366-0.522,3.284-1.276c0.659-0.541,1.013-1.181,1.159-1.866
		C291.113,224.177,291.117,223.777,291.051,223.366z"/>
	<path style="fill:#005268;" d="M279.802,224.913c-0.316-0.701-0.658-1.393-0.996-2.084c-0.192-0.393-0.721-0.303-1.024,0
		c-0.098,0.098-0.966,1.115-1.082,1.599c-0.119,0.496-0.075,0.973,0.055,1.432c-0.402,1.126-0.744,2.27-1.303,3.347
		c-0.898,1.73-2.031,3.323-3.309,4.794c-2.449,2.819-5.367,5.172-8.066,7.738c-4.485,4.263-9.237,10.281-7.908,16.912
		c0.046,0.228,1.682,1.954,2.3,2.729c0.279,0.35,0.765,0.092,0.895-0.236c0.628-1.586,1.908-4.415,1.923-4.54
		c0.422-3.498,0.93-7.235,2.997-10.128c1.964-2.749,4.299-5.247,6.833-7.46c5.782-5.05,7.19-11.479,7.246-11.616
		c0.131-0.319,0.875-0.385,1.13-0.6c0.252-0.212,0.457-0.464,0.528-0.794C280.105,225.616,279.959,225.261,279.802,224.913z"/>
	<path style="fill:#78ECFF;" d="M266.994,241.851c-3.369-2.061-6.255,0.488-7.336,2.555c-0.913,1.745-0.48,3.946,0.716,5.281
		c1.816,2.027,2.99,2.363,7.576,2.501C268.082,252.192,270.848,244.209,266.994,241.851z"/>
	<path style="fill:#CE9C7A;" d="M244.458,224.477c-0.663-1.104-1.294-2.11-1.654-3.375c-0.098-0.345-0.165-0.693-0.221-1.042
		c-0.029-0.042-0.035-0.097-0.023-0.148c-0.089-0.593-0.195-1.189-0.203-1.794c-0.007-0.513-0.035-1.017-0.509-1.023
		c-0.701-0.008-0.793,1.194-0.863,1.639c-0.37,2.333,0.36,4.625,1.63,6.488c0.316,0.464,0.817,1.255,1.545,0.958
		C244.927,225.867,244.768,224.993,244.458,224.477z"/>
	<path style="fill:#CE9C7A;" d="M239.383,219.656c0.075-0.404,0.253-1.343,0.909-1.124c0.361,0.121,0.287,0.683,0.302,1.243
		c0.028,1.018,0.344,1.988,0.733,2.95c0.228,0.564,0.513,1.103,0.833,1.619c0.278,0.448,0.686,0.847,0.913,1.32
		c0.2,0.416,0.155,0.973-0.393,1.161c-0.801,0.275-1.306-0.646-1.65-1.144C239.841,223.958,238.975,221.853,239.383,219.656z"/>
	<path style="fill:#E2B28F;" d="M265.149,243.018c-1.068-1.075-5.43-1.553-8.814-4.647c-3.797-3.472-6.72-9.468-7.024-10.068
		c-0.006-0.012-0.015-0.021-0.022-0.033c-0.091-0.176-0.168-0.561-0.148-0.715c0.092-0.691,0.21-1.272,0.111-1.865
		c-0.165-0.995-0.64-1.87-1.296-2.626c-0.183-0.212-0.344-0.102-0.346,0.155c-0.114,0.566-0.696,1.263-1.056,0.887
		c-0.677-0.842-1.394-1.698-1.793-2.705c-0.366-0.923-0.537-1.886-0.753-2.841c-0.015-0.067-0.024-0.134-0.027-0.202
		c-0.028-0.537-0.148-1.086-0.533-1.196c-0.364-0.105-0.721,0.196-0.736,0.543c-0.048,1.124,0.146,2.776,0.457,3.873
		c0.283,0.999,0.752,2.086,1.321,3.012c-0.35,0.243-0.714,0.468-1.097,0.666c-0.363,0.187-0.739,0.353-1.122,0.492
		c-0.218,0.079-0.473,0.13-0.717,0.198c-0.786-1.402-1.593-2.784-1.915-4.398c-0.031-0.156-0.145-0.227-0.271-0.232
		c-0.048-0.045-0.124-0.065-0.205-0.028c-1.098,0.491,0.021,2.494,0.261,3.145c0.28,0.759,1.254,3.17,2.313,4.292
		c0.002,0.002,0.004,0.003,0.006,0.005c0.874,1.243,2.041,2.341,3.333,3.264c1.09,1.249,3.132,5.889,6.602,9.726
		c5.86,6.481,11.144,8.807,13.19,7.275C267.401,247.096,266.33,244.207,265.149,243.018z"/>
	<path style="fill:#052F33;" d="M296.829,198.52c-1.036-0.707-2.082-1.431-3.438-1.704c-0.183-0.037-0.349,0.003-0.481,0.088
		c-0.136,0.088-0.316,0.08-0.434-0.031c-0.201-0.187-0.376-0.407-0.478-0.674c-0.118-0.313-0.415-0.599-0.753-0.359
		c-2.235,1.586-0.727,4.276-0.217,6.343c0.821,3.331,1.461,7.085-1.217,8.828c-0.5,0.326-1.13,0.741-0.934,1.265
		c0.227,0.609,0.598,0.609,0.934,0.573c3.101-0.338,0.173,3.352-0.245,4.203c-0.462,0.943-0.656,1.91-0.72,2.951
		c-0.03,0.489,0.675,0.65,0.904,0.245c0.56-0.986,1.291-1.675,2.213-2.205c0.002,0.05,0.004,0.1,0.006,0.162
		c0.004,0.119,0.059,0.303,0.141,0.362c0.205,0.15,0.531,0.128,0.746-0.07c1.171-1.077,2.367-1.547,3.849-2.005
		c0.943-0.292,1.895-0.629,2.65-1.29c1.584-1.386,1.9-3.635,1.983-5.623C301.488,206.028,300.156,200.789,296.829,198.52z"/>
	<path style="fill:#F96484;" d="M291.352,212.279c-0.773-0.049-6.203,2.068-5.789,2.422c3.028,2.59,5.105,2.314,6.585,0.219
		C292.788,214.015,292.968,212.382,291.352,212.279z"/>
	<path style="fill:#0CC6E5;" d="M225.156,41.035c-1.143-0.478-7.14,4.128-8.185,5.09c-0.875,0.805,9.765,6.335,9.676,4.78
		C226.37,46.115,226.344,41.531,225.156,41.035z"/>
	<path style="fill:#78ECFF;" d="M159.071,167.339c-1.597-1.982-5.277-2.515-7.105-0.522c-0.077,0.084-0.078,0.191-0.037,0.277
		c-0.57,0.52-1.026,1.163-1.288,1.876c-0.789,2.145,0.224,4.735,2.172,5.885c2.023,1.194,4.795,0.61,6.291-1.16
		C160.611,171.91,160.515,169.131,159.071,167.339z"/>
	<path style="fill:#CE9C7A;" d="M147.369,168.663c-1.275,1.545-2.43,4.241-1.424,6.2c0.063,0.124,0.232,0.053,0.242-0.065
		c0.007-0.078,0.01-0.156,0.014-0.234c0.035-0.027,0.066-0.062,0.085-0.112c0.333-0.885,0.45-1.85,0.709-2.76
		c0.262-0.92,0.602-1.802,0.96-2.688C148.083,168.683,147.586,168.401,147.369,168.663z"/>
	<path style="fill:#E2B28F;" d="M156.147,165.245c-1.051-0.516-1.868,1.73-2.211,2.364c-0.26,0.481-0.509,0.969-0.741,1.466
		c-0.202,0.434-0.65,0.698-1.128,0.67l-0.008,0c-0.397-0.025-0.793-0.077-1.182-0.155c-0.483-0.096-0.951-0.236-1.407-0.408
		c0.377-1.159,0.684-2.297,1.247-3.399c0.445-0.871,1.025-1.63,1.585-2.409c0.086-0.119,0.176-0.235,0.279-0.34
		c0.374-0.385,0.717-0.85,0.521-1.185c-0.281-0.483-1.031-0.07-1.1,0.015c-0.94,0.777-1.701,1.966-2.336,2.962
		c-0.708,1.11-1.362,2.302-1.835,3.541c-0.586,1.538-1.573,4.422-2.27,6.562c-1.285,3.949-2.731,7.262-2.712,7.405
		c0.001,0.005,0.397,0.478,0.396,0.483c-0.027,0.135,0.115,0.204,0.211,0.143c0.929,0.387,1.899,0.692,2.862,0.979
		c0.61,0.182,2.077,0.611,2.204-0.111c0.124-0.707,0.364-3.179,0.483-4.363c0.04-0.392,0.202-0.762,0.475-1.047
		c1.744-1.819,3.265-4.054,3.974-6.409c0.035-0.115,0.357-0.884,0.438-1.102c0.661-1.77,1.258-3.541,2.351-5.112
		C156.45,165.501,156.225,165.283,156.147,165.245z"/>
	<path style="fill:#005C7C;" d="M133.739,252.007c-0.73-6.289-2.253-26.449-2.076-28.319c0.575-6.071,3.819-11.732,6.857-16.728
		c1.874-3.083,3.743-6.174,5.284-9.44c1.498-3.175,4.415-9.726,5.151-13.748c0.033-0.178-0.075-0.394-0.233-0.483
		c-1.171-0.661-1.868-0.876-2.854-1.201c-0.788-0.26-1.49-0.346-2.485-0.477c-0.178-0.024-0.394,0.086-0.479,0.245
		c-2.648,4.97-4.67,10.292-7.869,14.993c-4.195,6.163-9.255,11.754-14.591,17.02c-0.333,0.328-0.696,0.658-1.076,0.992
		c-0.229,0.201-0.514,0.322-0.814,0.371c-3.727,0.609-6.903,3.223-8.055,6.711c-0.775,2.348-0.751,4.891-0.771,7.326
		c-0.024,2.868-0.036,5.737-0.054,8.606c-0.075,11.817-0.097,19.753-0.139,31.57c-0.002,0.546,0.575,4.779,4.842,6.315
		c5.065,1.823,10.414,3.427,15.603,4.857c2.477,0.683,8.461,2.636,8.541-2.104C138.554,276.482,134.54,258.912,133.739,252.007z"/>
	<path style="fill:#CE9C7A;" d="M149.446,168.556c-0.154,0.564-0.44,1.497,0.235,1.859c0.713,0.382,1.274-0.342,1.471-0.938
		c0.422-1.274,0.79-2.456,1.521-3.605c0.565-0.888,1.275-1.629,1.973-2.399c0.409-0.323,0.746-0.727,0.456-1.098
		c-0.429-0.55-1.392,0.204-1.771,0.455C151.341,164.145,150.065,166.288,149.446,168.556z"/>
	<path style="fill:#CE9C7A;" d="M150.924,169.151c-0.162,0.609-0.544,1.634,0.16,2.068c0.482,0.297,0.929-0.051,1.119-0.492
		c0.216-0.502,0.264-1.093,0.43-1.617c0.191-0.603,0.421-1.195,0.705-1.76c0.484-0.964,1.128-1.768,1.771-2.597
		c0.462-0.328,0.883-0.726,0.75-1.089c-0.241-0.661-1.059-0.154-1.411,0.066C152.537,164.921,151.486,167.04,150.924,169.151z"/>
	<g>
		<path style="fill:#00B9CC;" d="M158.92,161.88c-0.242,0.335-0.353,0.677-0.473,1.067c-0.119,0.387-0.288,0.787-0.325,1.192
			c-0.047,0.515,0.57,0.685,0.833,0.262c0.215-0.346,0.323-0.767,0.462-1.148c0.142-0.388,0.248-0.725,0.258-1.141
			C159.684,161.744,159.126,161.596,158.92,161.88z"/>
		<path style="fill:#00B9CC;" d="M161.53,154.523c-0.378,0.476-0.541,1.143-0.756,1.706c-0.181,0.474-0.541,1.028-0.36,1.534
			c0.046,0.129,0.22,0.222,0.351,0.158c0.492-0.242,0.61-0.838,0.817-1.316c0.238-0.548,0.602-1.153,0.664-1.751
			C162.286,154.469,161.799,154.185,161.53,154.523z"/>
		<path style="fill:#00B9CC;" d="M164.108,147.915c-0.398,0.437-0.625,1.073-0.813,1.626c-0.153,0.447-0.399,1.085-0.162,1.527
			c0.049,0.091,0.178,0.17,0.275,0.083c0.351-0.315,0.405-0.867,0.558-1.298c0.194-0.547,0.518-1.039,0.707-1.581
			C164.796,147.918,164.377,147.619,164.108,147.915z"/>
		<path style="fill:#00B9CC;" d="M166.397,142.303c-0.27,0.296-0.361,0.741-0.498,1.113c-0.139,0.379-0.322,0.764-0.379,1.165
			c-0.054,0.379,0.481,0.699,0.727,0.336c0.244-0.359,0.38-0.774,0.543-1.174c0.16-0.394,0.372-0.774,0.373-1.204
			C167.164,142.137,166.628,142.049,166.397,142.303z"/>
		<path style="fill:#00B9CC;" d="M168.603,137.025c-0.332,0.318-0.467,0.786-0.641,1.201c-0.174,0.414-0.406,0.839-0.476,1.285
			c-0.061,0.394,0.456,0.657,0.716,0.331c0.298-0.373,0.463-0.858,0.661-1.29c0.199-0.433,0.415-0.831,0.426-1.316
			C169.298,136.858,168.814,136.823,168.603,137.025z"/>
	</g>
	<g>
		<path style="fill:#00B9CC;" d="M191.772,105.347c0.308-0.252,0.497-0.545,0.706-0.881c0.208-0.333,0.464-0.665,0.6-1.035
			c0.173-0.471-0.357-0.786-0.706-0.456c-0.286,0.27-0.492,0.637-0.716,0.96c-0.229,0.328-0.411,0.617-0.525,1.004
			C191.029,105.282,191.51,105.562,191.772,105.347z"/>
		<path style="fill:#00B9CC;" d="M187.506,111.582c0.47-0.35,0.788-0.935,1.129-1.408c0.287-0.398,0.759-0.826,0.718-1.346
			c-0.01-0.132-0.149-0.264-0.286-0.237c-0.517,0.102-0.776,0.632-1.088,1.027c-0.358,0.453-0.847,0.928-1.055,1.473
			C186.792,111.441,187.172,111.831,187.506,111.582z"/>
		<path style="fill:#00B9CC;" d="M183.459,117.123c0.478-0.309,0.848-0.848,1.162-1.318c0.253-0.38,0.642-0.916,0.534-1.39
			c-0.022-0.098-0.122-0.205-0.234-0.147c-0.404,0.206-0.593,0.71-0.843,1.076c-0.317,0.463-0.741,0.843-1.052,1.303
			C182.821,116.946,183.135,117.332,183.459,117.123z"/>
		<path style="fill:#00B9CC;" d="M179.928,121.804c0.325-0.21,0.521-0.604,0.741-0.917c0.224-0.32,0.49-0.634,0.644-0.996
			c0.145-0.341-0.27-0.777-0.59-0.499c-0.316,0.275-0.547,0.629-0.798,0.963c-0.248,0.329-0.539,0.631-0.648,1.035
			C179.176,121.765,179.65,121.983,179.928,121.804z"/>
		<path style="fill:#00B9CC;" d="M176.559,126.192c0.387-0.214,0.63-0.619,0.896-0.964c0.265-0.344,0.587-0.683,0.764-1.084
			c0.156-0.354-0.258-0.731-0.581-0.492c-0.37,0.275-0.644,0.687-0.937,1.042c-0.293,0.356-0.594,0.674-0.725,1.126
			C175.874,126.173,176.313,126.328,176.559,126.192z"/>
		<path style="fill:#00B9CC;" d="M202.117,90.945c0.47-0.321,0.826-0.869,1.128-1.348c0.244-0.387,0.618-0.933,0.498-1.404
			c-0.025-0.097-0.127-0.201-0.238-0.141c-0.399,0.217-0.575,0.725-0.815,1.097c-0.305,0.472-0.719,0.862-1.018,1.33
			C201.476,90.784,201.799,91.162,202.117,90.945z"/>
		<path style="fill:#00B9CC;" d="M198.707,95.716c0.32-0.218,0.506-0.617,0.718-0.936c0.216-0.325,0.474-0.647,0.618-1.013
			c0.136-0.345-0.29-0.77-0.602-0.484c-0.309,0.283-0.531,0.643-0.773,0.984c-0.239,0.335-0.523,0.645-0.621,1.051
			C197.954,95.697,198.434,95.902,198.707,95.716z"/>
		<path style="fill:#00B9CC;" d="M195.451,100.19c0.382-0.224,0.614-0.635,0.871-0.987c0.256-0.351,0.57-0.698,0.736-1.103
			c0.146-0.357-0.277-0.724-0.593-0.476c-0.363,0.284-0.627,0.703-0.91,1.066c-0.284,0.363-0.576,0.689-0.696,1.144
			C194.765,100.189,195.208,100.332,195.451,100.19z"/>
	</g>
	<g>
		<path style="fill:#00B9CC;" d="M216.337,63.737c0.209-0.305,0.302-0.615,0.401-0.968c0.099-0.35,0.241-0.713,0.266-1.077
			c0.031-0.464-0.527-0.606-0.753-0.221c-0.185,0.315-0.273,0.695-0.39,1.041c-0.119,0.352-0.206,0.656-0.206,1.03
			C215.655,63.874,216.159,63.997,216.337,63.737z"/>
		<path style="fill:#00B9CC;" d="M214.155,70.399c0.329-0.434,0.46-1.037,0.641-1.548c0.152-0.429,0.463-0.934,0.289-1.386
			c-0.044-0.115-0.202-0.196-0.318-0.136c-0.437,0.226-0.529,0.765-0.704,1.198c-0.201,0.497-0.515,1.047-0.558,1.586
			C213.479,70.461,213.922,70.708,214.155,70.399z"/>
		<path style="fill:#00B9CC;" d="M211.987,76.387c0.347-0.4,0.537-0.976,0.694-1.476c0.127-0.405,0.334-0.983,0.112-1.376
			c-0.046-0.081-0.163-0.15-0.249-0.07c-0.308,0.29-0.344,0.786-0.472,1.178c-0.162,0.495-0.442,0.944-0.6,1.434
			C211.369,76.396,211.752,76.657,211.987,76.387z"/>
		<path style="fill:#00B9CC;" d="M220.017,53.357c0.229-0.278,0.291-0.681,0.397-1.021c0.108-0.346,0.254-0.699,0.287-1.062
			c0.031-0.342-0.462-0.609-0.667-0.273c-0.202,0.332-0.306,0.711-0.434,1.077c-0.126,0.361-0.299,0.71-0.28,1.097
			C219.338,53.537,219.821,53.594,220.017,53.357z"/>
		<path style="fill:#00B9CC;" d="M218.277,58.188c0.283-0.299,0.383-0.726,0.521-1.105c0.137-0.379,0.327-0.77,0.369-1.174
			c0.037-0.356-0.438-0.572-0.656-0.268c-0.25,0.348-0.376,0.79-0.535,1.186c-0.159,0.397-0.335,0.764-0.323,1.2
			C217.662,58.367,218.097,58.378,218.277,58.188z"/>
	</g>
</g>
</svg>
